<?xml version="1.0" encoding="UTF-8"?>
<svg width="53px" height="53px" viewBox="0 0 53 53" version="1.1" xmlns="http://www.w3.org/2000/svg" xmlns:xlink="http://www.w3.org/1999/xlink">
    <!-- Generator: Sketch 46.2 (44496) - http://www.bohemiancoding.com/sketch -->
    <title>fb</title>
    <desc>Created with Sketch.</desc>
    <defs></defs>
    <g id="Page-1" stroke="none" stroke-width="1" fill="none" fill-rule="evenodd">
        <g id="3.1.-Save-and-Share" transform="translate(-657.000000, -600.000000)" fill="#43619C">
            <g id="Group-7" transform="translate(461.000000, 330.000000)">
                <g id="Popup">
                    <g id="Group-11" transform="translate(122.000000, 270.000000)">
                        <g id="fb" transform="translate(74.000000, 0.000000)">
                            <path d="M26.4790789,0 C11.8552632,0 0,11.8552632 0,26.4790789 C0,41.0959211 11.8552632,52.9511842 26.4790789,52.9511842 C41.0959211,52.9511842 52.9511842,41.0959211 52.9511842,26.4790789 C52.9511842,11.8552632 41.0959211,0 26.4790789,0 L26.4790789,0 Z M39.3594737,37.6718421 C39.3594737,38.4528947 38.9759211,38.9619737 38.2018421,38.9619737 L31.6884211,38.9619737 L31.6884211,29.1988158 L35.0009211,29.1988158 L35.5030263,25.0146053 L31.6884211,25.0146053 L31.6884211,22.8388158 C31.6884211,21.7230263 31.9882895,20.8303947 33.5922368,20.8303947 L35.8726316,20.8303947 L35.8726316,17.5039474 C35.1752632,17.4551316 34.0943421,17.3505263 32.6786842,17.3505263 C29.7357895,17.3505263 27.5042105,19.1497368 27.5042105,22.4552632 L27.5042105,25.0146053 L24.0173684,25.0146053 L24.0173684,29.1988158 L27.5042105,29.1988158 L27.5042105,38.9619737 L15.4257895,38.9619737 C14.6447368,38.9619737 14.2542105,38.4528947 14.2542105,37.6718421 L14.2542105,14.8957895 C14.2542105,14.1147368 14.6447368,13.1593421 15.4257895,13.1593421 L38.2018421,13.1593421 C38.9759211,13.1593421 39.3594737,14.1147368 39.3594737,14.8957895 L39.3594737,37.6718421 L39.3594737,37.6718421 Z" id="Facebook"></path>
                        </g>
                    </g>
                </g>
            </g>
        </g>
    </g>
</svg>