<?xml version="1.0" encoding="UTF-8"?>
<svg width="53px" height="53px" viewBox="0 0 53 53" version="1.1" xmlns="http://www.w3.org/2000/svg" xmlns:xlink="http://www.w3.org/1999/xlink">
    <!-- Generator: Sketch 46.2 (44496) - http://www.bohemiancoding.com/sketch -->
    <title>google</title>
    <desc>Created with Sketch.</desc>
    <defs></defs>
    <g id="Page-1" stroke="none" stroke-width="1" fill="none" fill-rule="evenodd">
        <g id="3.1.-Save-and-Share" transform="translate(-804.000000, -600.000000)" fill="#F24033">
            <g id="Group-7" transform="translate(461.000000, 330.000000)">
                <g id="Popup">
                    <g id="Group-11" transform="translate(122.000000, 270.000000)">
                        <g id="google" transform="translate(221.000000, 0.000000)">
                            <path d="M26.4790789,0 C11.8552632,0 0,11.8552632 0,26.4790789 C0,41.0959211 11.8552632,52.9511842 26.4790789,52.9511842 C41.0959211,52.9511842 52.9511842,41.0959211 52.9511842,26.4790789 C52.9511842,11.8552632 41.0959211,0 26.4790789,0 L26.4790789,0 Z M21.3394737,35.6425 C16.4021053,35.6425 12.3992105,31.5907895 12.3992105,26.6464474 C12.3992105,21.7021053 16.4021053,17.6643421 21.3394737,17.6643421 C23.6547368,17.6643421 25.7677632,18.5430263 27.3507895,19.9865789 C25.4818421,21.7578947 25.5446053,21.8555263 24.8053947,22.5947368 C23.8918421,21.8276316 22.8876316,21.2767105 21.3394737,21.2767105 C18.4035526,21.2767105 16.1161842,23.6617105 16.1161842,26.5976316 C16.1161842,29.5335526 18.4035526,31.9882895 21.3394737,31.9882895 C24.2335526,31.9882895 25.4121053,30.5935526 26.1722368,28.5014474 L21.4440789,28.5014474 L21.4440789,25.0146053 L29.9240789,25.0146053 C30.5168421,29.1988158 28.7176316,35.6425 21.3394737,35.6425 L21.3394737,35.6425 Z M40.2730263,27.1067105 L37.4835526,27.1067105 L37.4835526,30.5935526 L35.3914474,30.5935526 L35.3914474,27.1067105 L31.9046053,27.1067105 L31.9046053,25.0146053 L35.3914474,25.0146053 L35.3914474,22.2251316 L37.4835526,22.2251316 L37.4835526,25.0146053 L40.2730263,25.0146053 L40.2730263,27.1067105 L40.2730263,27.1067105 Z" id="Google+"></path>
                        </g>
                    </g>
                </g>
            </g>
        </g>
    </g>
</svg>