<?xml version="1.0" encoding="UTF-8"?>
<svg width="20px" height="20px" viewBox="0 0 20 20" version="1.1" xmlns="http://www.w3.org/2000/svg" xmlns:xlink="http://www.w3.org/1999/xlink">
    <!-- Generator: Sketch 46.2 (44496) - http://www.bohemiancoding.com/sketch -->
    <title>icon_print</title>
    <desc>Created with Sketch.</desc>
    <defs></defs>
    <g id="Page-1" stroke="none" stroke-width="1" fill="none" fill-rule="evenodd">
        <g id="1.0.-Main" transform="translate(-1202.000000, -89.000000)" fill-rule="nonzero" fill="#FFFFFF">
            <g id="content" transform="translate(15.000000, 80.000000)">
                <g id="menu" transform="translate(1094.000000, 9.000000)">
                    <g id="Group-3" transform="translate(93.000000, 0.000000)">
                        <g id="icon_print">
                            <path d="M4.16666667,0 L4.16666667,5.83333333 L2.5,5.83333333 C1.1295575,5.83333333 0,6.96289083 0,8.33333333 L0,16.6666667 L4.16666667,16.6666667 L4.16666667,20 L15.8333333,20 L15.8333333,16.6666667 L20,16.6666667 L20,8.33333333 C20,6.96289083 18.8704425,5.83333333 17.5,5.83333333 L15.8333333,5.83333333 L15.8333333,0 L4.16666667,0 Z M5.83333333,1.66666667 L14.1666667,1.66666667 L14.1666667,5.83333333 L5.83333333,5.83333333 L5.83333333,1.66666667 Z M2.5,7.5 L17.5,7.5 C17.972005,7.5 18.3333333,7.86132833 18.3333333,8.33333333 L18.3333333,15 L15.8333333,15 L15.8333333,11.6666667 L4.16666667,11.6666667 L4.16666667,15 L1.66666667,15 L1.66666667,8.33333333 C1.66666667,7.86132833 2.027995,7.5 2.5,7.5 Z M3.33333333,8.33333333 C2.87434917,8.33333333 2.5,8.7076825 2.5,9.16666667 C2.5,9.62565083 2.87434917,10 3.33333333,10 C3.7923175,10 4.16666667,9.62565083 4.16666667,9.16666667 C4.16666667,8.7076825 3.7923175,8.33333333 3.33333333,8.33333333 Z M5.83333333,13.3333333 L14.1666667,13.3333333 L14.1666667,18.3333333 L5.83333333,18.3333333 L5.83333333,13.3333333 Z" id="Shape"></path>
                        </g>
                    </g>
                </g>
            </g>
        </g>
    </g>
</svg>