<?xml version="1.0" encoding="UTF-8"?>
<svg width="20px" height="20px" viewBox="0 0 20 20" version="1.1" xmlns="http://www.w3.org/2000/svg" xmlns:xlink="http://www.w3.org/1999/xlink">
    <!-- Generator: Sketch 46.2 (44496) - http://www.bohemiancoding.com/sketch -->
    <title>icon_help</title>
    <desc>Created with Sketch.</desc>
    <defs></defs>
    <g id="Page-1" stroke="none" stroke-width="1" fill="none" fill-rule="evenodd">
        <g id="1.0.-Main" transform="translate(-1109.000000, -89.000000)" fill-rule="nonzero" fill="#FFFFFF">
            <g id="content" transform="translate(15.000000, 80.000000)">
                <g id="menu" transform="translate(1094.000000, 9.000000)">
                    <g id="Group-3-Copy">
                        <g id="icon_help">
                            <path d="M10,0 C4.4856775,0 0,4.4856775 0,10 C0,15.5143233 4.4856775,20 10,20 C15.5143233,20 20,15.5143233 20,10 C20,4.4856775 15.5143233,0 10,0 Z M10,1.66666667 C14.61263,1.66666667 18.3333333,5.38737 18.3333333,10 C18.3333333,14.61263 14.61263,18.3333333 10,18.3333333 C5.38737,18.3333333 1.66666667,14.61263 1.66666667,10 C1.66666667,5.38737 5.38737,1.66666667 10,1.66666667 Z M10,5 C8.1673175,5 6.66666667,6.50065083 6.66666667,8.33333333 L8.33333333,8.33333333 C8.33333333,7.40234417 9.06901083,6.66666667 10,6.66666667 C10.93099,6.66666667 11.6666667,7.40234417 11.6666667,8.33333333 C11.6666667,8.97135417 11.2565108,9.53776083 10.6510417,9.73958333 L10.3125,9.84375 C9.63216167,10.0683592 9.16666667,10.7194008 9.16666667,11.4322917 L9.16666667,12.5 L10.8333333,12.5 L10.8333333,11.4322917 L11.171875,11.328125 C12.4544275,10.9016925 13.3333333,9.684245 13.3333333,8.33333333 C13.3333333,6.50065083 11.8326825,5 10,5 Z M9.16666667,13.3333333 L9.16666667,15 L10.8333333,15 L10.8333333,13.3333333 L9.16666667,13.3333333 Z" id="Shape"></path>
                        </g>
                    </g>
                </g>
            </g>
        </g>
    </g>
</svg>