<?xml version="1.0" encoding="UTF-8"?>
<svg width="20px" height="20px" viewBox="0 0 20 20" version="1.1" xmlns="http://www.w3.org/2000/svg" xmlns:xlink="http://www.w3.org/1999/xlink">
    <!-- Generator: Sketch 46.2 (44496) - http://www.bohemiancoding.com/sketch -->
    <title>icon_share</title>
    <desc>Created with Sketch.</desc>
    <defs></defs>
    <g id="Page-1" stroke="none" stroke-width="1" fill="none" fill-rule="evenodd">
        <g id="1.0.-Main" transform="translate(-1302.000000, -89.000000)" fill-rule="nonzero" fill="#FFFFFF">
            <g id="content" transform="translate(15.000000, 80.000000)">
                <g id="menu" transform="translate(1094.000000, 9.000000)">
                    <g id="Group-2" transform="translate(193.000000, 0.000000)">
                        <g id="icon_share">
                            <path d="M13.6100258,0.254755652 L12.4316408,1.48437478 L16.009115,5.2173913 L14.1666667,5.2173913 C8.19335917,5.2173913 3.33333333,10.2887226 3.33333333,16.5217391 L5,16.5217391 C5,11.22962 9.0950525,6.95652174 14.1666667,6.95652174 L16.009115,6.95652174 L12.4316408,10.6895383 L13.6100258,11.9191574 L19.1992192,6.08695652 L13.6100258,0.254755652 Z M0,6.08695652 L0,20 L18.3333333,20 L18.3333333,14.7826087 L16.6666667,14.7826087 L16.6666667,18.2608696 L1.66666667,18.2608696 L1.66666667,6.08695652 L0,6.08695652 Z" id="Shape"></path>
                        </g>
                    </g>
                </g>
            </g>
        </g>
    </g>
</svg>