<?xml version="1.0" encoding="UTF-8"?>
<svg width="54px" height="54px" viewBox="0 0 54 54" version="1.1" xmlns="http://www.w3.org/2000/svg" xmlns:xlink="http://www.w3.org/1999/xlink">
    <!-- Generator: Sketch 46.2 (44496) - http://www.bohemiancoding.com/sketch -->
    <title>linkedin</title>
    <desc>Created with Sketch.</desc>
    <defs></defs>
    <g id="Page-1" stroke="none" stroke-width="1" fill="none" fill-rule="evenodd">
        <g id="3.1.-Save-and-Share" transform="translate(-730.000000, -600.000000)">
            <g id="Group-7" transform="translate(461.000000, 330.000000)">
                <g id="Popup">
                    <g id="Group-11" transform="translate(122.000000, 270.000000)">
                        <g id="linkedin" transform="translate(147.000000, 0.000000)">
                            <path d="M53.6444416,26.715974 C53.6444416,41.4208052 41.7237662,53.3414805 27.0189351,53.3414805 C12.3141039,53.3414805 0.393428571,41.4208052 0.393428571,26.715974 C0.393428571,12.0111429 12.3141039,0.0904675325 27.0189351,0.0904675325 C41.7237662,0.0904675325 53.6444416,12.0111429 53.6444416,26.715974" id="Linkedin-Circle" fill="#187FB8"></path>
                            <path d="M15.2020519,22.6912208 L20.2443896,22.6912208 L20.2443896,38.6682078 L15.2020519,38.6682078 L15.2020519,22.6912208 Z M34.0214026,22.5376364 C37.605039,22.5376364 40.4207532,24.8357922 40.4207532,29.7848571 L40.4207532,38.6682078 L34.7030649,38.6682078 L34.7030649,30.4005974 C34.7030649,28.2363896 33.8089091,26.7587532 31.8417662,26.7587532 C30.3374805,26.7587532 29.5008312,27.756 29.1116104,28.7167792 C28.9657403,29.0618182 28.9881818,29.5422078 28.9881818,30.0225974 L28.9881818,38.6682078 L23.3237922,38.6682078 C23.3237922,38.6682078 23.3967273,24.022987 23.3237922,22.6912208 L28.9881818,22.6912208 L28.9881818,25.1990649 C29.3227013,24.1022338 31.1327532,22.5376364 34.0214026,22.5376364 Z M17.6299481,15.1494545 C19.4904935,15.1494545 20.6343117,16.3423636 20.6707792,17.9188831 C20.6707792,19.4666494 19.4904935,20.6925195 17.5948831,20.6925195 L17.5584156,20.6925195 C15.7336364,20.6925195 14.5498442,19.4715584 14.5498442,17.9230909 C14.5498442,16.3451688 15.768,15.1494545 17.6299481,15.1494545 Z" id="Linkedin" fill="#FFFFFF"></path>
                        </g>
                    </g>
                </g>
            </g>
        </g>
    </g>
</svg>