<?xml version="1.0" encoding="UTF-8"?>
<svg width="54px" height="54px" viewBox="0 0 54 54" version="1.1" xmlns="http://www.w3.org/2000/svg" xmlns:xlink="http://www.w3.org/1999/xlink">
    <!-- Generator: Sketch 46.2 (44496) - http://www.bohemiancoding.com/sketch -->
    <title>twitter</title>
    <desc>Created with Sketch.</desc>
    <defs></defs>
    <g id="Page-1" stroke="none" stroke-width="1" fill="none" fill-rule="evenodd">
        <g id="3.1.-Save-and-Share" transform="translate(-583.000000, -600.000000)">
            <g id="Group-7" transform="translate(461.000000, 330.000000)">
                <g id="Popup">
                    <g id="Group-11" transform="translate(122.000000, 270.000000)">
                        <g id="twitter">
                            <path d="M53.6444416,26.715974 C53.6444416,41.4208052 41.7237662,53.3414805 27.0189351,53.3414805 C12.3141039,53.3414805 0.393428571,41.4208052 0.393428571,26.715974 C0.393428571,12.0111429 12.3141039,0.0904675325 27.0189351,0.0904675325 C41.7237662,0.0904675325 53.6444416,12.0111429 53.6444416,26.715974" id="Twitter-Circle" fill="#24A9E6"></path>
                            <path d="M39.1044156,16.0281818 C38.0622857,16.6607532 36.9107532,17.1208052 35.679974,17.366961 C34.6995584,16.293974 33.2983636,15.6235325 31.7470909,15.6235325 C28.7735844,15.6235325 26.3604156,18.0977143 26.3604156,21.1490649 C26.3604156,21.5817662 26.4067013,22.0025455 26.4992727,22.4071948 C22.0207792,22.1764675 18.0507273,19.9792987 15.3914026,16.632 C14.9271429,17.4511169 14.6620519,18.4013766 14.6620519,19.4126494 C14.6620519,21.3292987 15.613013,23.0208312 17.0597922,24.0117662 C16.1775584,23.9851169 15.3451169,23.7340519 14.6171688,23.3223896 L14.6171688,23.3904156 C14.6171688,26.0686753 16.4749091,28.303013 18.9420779,28.8086494 C18.4904416,28.9383896 18.0135584,29.0029091 17.5219481,29.0029091 C17.1748052,29.0029091 16.8360779,28.9699481 16.5078701,28.9054286 C17.1937403,31.0997922 19.1826234,32.6980519 21.5410909,32.7401299 C19.6973766,34.2233766 17.3725714,35.107013 14.8485974,35.107013 C14.4137922,35.107013 13.9838961,35.0817662 13.5631169,35.0312727 C15.9475325,36.5965714 18.7814805,37.5117662 21.8237143,37.5117662 C31.7365714,37.5117662 37.1555065,29.0933766 37.1555065,21.7907532 C37.1555065,21.5502078 37.1512987,21.3103636 37.1421818,21.0747273 C38.1948312,20.2948831 39.1093247,19.3228831 39.8288571,18.2148312 C38.8638701,18.6538442 37.8245455,18.9511948 36.7347273,19.0844416 C37.8476883,18.4013766 38.7018701,17.3178701 39.1044156,16.0281818" id="Twitter" fill="#FFFFFF"></path>
                        </g>
                    </g>
                </g>
            </g>
        </g>
    </g>
</svg>